<?xml version="1.0" encoding="UTF-8"?>
<svg xmlns="http://www.w3.org/2000/svg" xmlns:xlink="http://www.w3.org/1999/xlink" width="200px" height="200px" viewBox="0 0 200 200" version="1.1">
<g id="surface1">
<path style=" stroke:none;fill-rule:nonzero;fill:rgb(34.509805%,39.607844%,94.901961%);fill-opacity:1;" d="M 200 100 C 200 44.773438 155.226562 0 100 0 C 44.773438 0 0 44.773438 0 100 C 0 155.226562 44.773438 200 100 200 C 155.226562 200 200 155.226562 200 100 Z M 200 100 "/>
<path style=" stroke:none;fill-rule:nonzero;fill:rgb(100%,100%,100%);fill-opacity:1;" d="M 134.65625 68.164062 C 128.171875 65.1875 121.328125 63.066406 114.296875 61.851562 C 114.167969 61.828125 114.035156 61.890625 113.96875 62.007812 C 113.039062 63.699219 112.191406 65.4375 111.429688 67.214844 C 103.855469 66.0625 96.148438 66.0625 88.570312 67.214844 C 87.808594 65.429688 86.949219 63.691406 85.996094 62.007812 C 85.929688 61.890625 85.796875 61.832031 85.667969 61.851562 C 78.640625 63.0625 71.800781 65.1875 65.320312 68.164062 C 65.265625 68.1875 65.21875 68.226562 65.1875 68.277344 C 52.222656 87.648438 48.671875 106.539062 50.414062 125.195312 C 50.425781 125.289062 50.472656 125.371094 50.546875 125.429688 C 58.09375 131.019531 66.539062 135.289062 75.515625 138.054688 C 75.644531 138.089844 75.785156 138.046875 75.867188 137.9375 C 77.796875 135.3125 79.503906 132.535156 80.972656 129.628906 C 81.015625 129.546875 81.019531 129.453125 80.984375 129.371094 C 80.953125 129.285156 80.886719 129.21875 80.800781 129.1875 C 78.105469 128.160156 75.5 126.917969 73 125.480469 C 72.90625 125.425781 72.847656 125.328125 72.84375 125.222656 C 72.835938 125.113281 72.882812 125.011719 72.96875 124.945312 C 73.492188 124.554688 74.015625 124.148438 74.515625 123.734375 C 74.609375 123.65625 74.734375 123.640625 74.839844 123.6875 C 91.203125 131.164062 108.921875 131.164062 125.09375 123.6875 C 125.203125 123.636719 125.332031 123.652344 125.421875 123.726562 C 125.921875 124.140625 126.449219 124.554688 126.984375 124.945312 C 127.070312 125.011719 127.121094 125.113281 127.113281 125.21875 C 127.109375 125.328125 127.050781 125.421875 126.960938 125.480469 C 124.464844 126.933594 121.851562 128.175781 119.148438 129.1875 C 119.0625 129.222656 118.992188 129.289062 118.960938 129.375 C 118.929688 129.460938 118.933594 129.554688 118.976562 129.632812 C 120.472656 132.523438 122.179688 135.300781 124.078125 137.941406 C 124.160156 138.050781 124.300781 138.097656 124.429688 138.058594 C 133.421875 135.304688 141.878906 131.035156 149.429688 125.4375 C 149.507812 125.382812 149.554688 125.296875 149.5625 125.207031 C 151.648438 103.632812 146.070312 84.898438 134.777344 68.289062 C 134.753906 68.234375 134.707031 68.1875 134.652344 68.164062 Z M 83.414062 113.835938 C 78.488281 113.835938 74.429688 109.3125 74.429688 103.757812 C 74.429688 98.203125 78.414062 93.679688 83.414062 93.679688 C 88.460938 93.679688 92.484375 98.242188 92.398438 103.757812 C 92.402344 109.3125 88.421875 113.835938 83.414062 113.835938 Z M 116.644531 113.835938 C 111.71875 113.835938 107.660156 109.3125 107.660156 103.757812 C 107.660156 98.203125 111.640625 93.679688 116.644531 93.679688 C 121.691406 93.679688 125.710938 98.242188 125.628906 103.757812 C 125.632812 109.3125 121.691406 113.835938 116.644531 113.835938 Z M 116.644531 113.835938 "/>
</g>
</svg>
