<?xml version="1.0" encoding="UTF-8"?>
<svg xmlns="http://www.w3.org/2000/svg" xmlns:xlink="http://www.w3.org/1999/xlink" width="200px" height="200px" viewBox="0 0 200 200" version="1.1">
<g id="surface1">
<path style=" stroke:none;fill-rule:nonzero;fill:rgb(61.960787%,90.588236%,100%);fill-opacity:1;" d="M 196.867188 100 C 196.867188 46.5 153.5 3.132812 100 3.132812 C 46.5 3.132812 3.132812 46.5 3.132812 100 C 3.132812 153.5 46.5 196.867188 100 196.867188 C 153.5 196.867188 196.867188 153.5 196.867188 100 Z M 196.867188 100 "/>
<path style=" stroke:none;fill-rule:nonzero;fill:rgb(58.823532%,60.784316%,61.176473%);fill-opacity:1;" d="M 113.359375 193.527344 C 59.863281 193.527344 16.492188 150.160156 16.492188 96.660156 C 16.492188 53.695312 44.46875 17.269531 83.195312 4.585938 C 37.707031 12.542969 3.132812 52.230469 3.132812 100 C 3.132812 153.5 46.5 196.867188 100 196.867188 C 110.53125 196.867188 120.671875 195.179688 130.164062 192.070312 C 124.707031 193.027344 119.09375 193.527344 113.359375 193.527344 Z M 113.359375 193.527344 "/>
<path style=" stroke:none;fill-rule:nonzero;fill:rgb(69.803923%,69.803923%,69.803923%);fill-opacity:1;" d="M 73.683594 156.785156 L 65.992188 110.628906 L 146.765625 45.242188 Z M 73.683594 156.785156 "/>
<path style=" stroke:none;fill-rule:nonzero;fill:rgb(80.000001%,80.000001%,80.000001%);fill-opacity:1;" d="M 83.300781 116.398438 L 73.683594 156.785156 L 146.765625 45.242188 Z M 83.300781 116.398438 "/>
<path style=" stroke:none;fill-rule:nonzero;fill:rgb(89.803922%,89.803922%,89.803922%);fill-opacity:1;" d="M 83.300781 116.398438 L 146.765625 45.242188 L 141.160156 140.496094 C 141.082031 141.851562 139.65625 142.699219 138.425781 142.125 Z M 83.300781 116.398438 "/>
<path style=" stroke:none;fill-rule:nonzero;fill:rgb(89.803922%,89.803922%,89.803922%);fill-opacity:1;" d="M 146.765625 45.242188 L 39.082031 95.367188 C 37.582031 96.066406 37.605469 98.210938 39.125 98.875 L 65.992188 110.628906 Z M 146.765625 45.242188 "/>
<path style=" stroke:none;fill-rule:nonzero;fill:rgb(0%,0%,0%);fill-opacity:1;" d="M 191.652344 59.9375 C 186.300781 47.714844 178.667969 36.828125 168.964844 27.585938 C 167.714844 26.394531 165.730469 26.441406 164.539062 27.695312 C 163.34375 28.945312 163.394531 30.929688 164.644531 32.121094 C 183.40625 49.992188 193.738281 74.101562 193.738281 100 C 193.738281 151.6875 151.6875 193.738281 100 193.738281 C 48.3125 193.738281 6.261719 151.6875 6.261719 100 C 6.261719 48.3125 48.3125 6.261719 100 6.261719 C 118.882812 6.261719 137.082031 11.851562 152.632812 22.421875 C 154.0625 23.394531 156.011719 23.023438 156.984375 21.59375 C 157.957031 20.164062 157.585938 18.214844 156.15625 17.242188 C 139.558594 5.960938 120.140625 0 100 0 C 73.289062 0 48.175781 10.402344 29.289062 29.289062 C 10.402344 48.175781 0 73.289062 0 100 C 0 126.710938 10.402344 151.824219 29.289062 170.710938 C 48.175781 189.597656 73.289062 200 100 200 C 126.710938 200 151.824219 189.597656 170.710938 170.710938 C 189.597656 151.824219 200 126.710938 200 100 C 200 86.074219 197.191406 72.59375 191.652344 59.9375 Z M 191.652344 59.9375 "/>
<path style=" stroke:none;fill-rule:nonzero;fill:rgb(0%,0%,0%);fill-opacity:1;" d="M 149.894531 45.15625 C 149.832031 42.941406 147.449219 41.476562 145.441406 42.402344 L 85.21875 70.4375 C 83.648438 71.167969 82.96875 73.03125 83.699219 74.597656 C 84.429688 76.167969 86.292969 76.847656 87.859375 76.117188 L 125.011719 58.824219 L 106.949219 73.445312 L 65.5 106.996094 L 42.832031 97.078125 L 74.597656 82.289062 C 76.167969 81.558594 76.847656 79.695312 76.117188 78.128906 C 75.386719 76.5625 73.523438 75.882812 71.957031 76.613281 L 37.761719 92.53125 C 35.941406 93.375 34.796875 95.226562 34.839844 97.230469 C 34.886719 99.191406 36.070312 100.957031 37.867188 101.742188 L 63.179688 112.816406 L 70.59375 157.300781 C 71.050781 160.050781 74.777344 160.832031 76.304688 158.5 L 97.332031 126.402344 L 137.101562 144.960938 C 140.289062 146.449219 144.082031 144.175781 144.285156 140.679688 L 149.890625 45.425781 C 149.894531 45.335938 149.894531 45.246094 149.894531 45.15625 Z M 95.066406 118.433594 L 88.4375 115.339844 L 121.042969 78.785156 L 116.328125 85.984375 Z M 85.457031 120.859375 L 91.597656 123.726562 L 80.878906 140.089844 Z M 118.742188 71.953125 L 80.960938 114.3125 C 80.621094 114.695312 80.371094 115.175781 80.253906 115.671875 L 74.226562 140.988281 L 69.378906 111.914062 Z M 138.140625 138.535156 L 100.800781 121.109375 L 142.949219 56.78125 Z M 138.140625 138.535156 "/>
</g>
</svg>
