<?xml version="1.0" encoding="UTF-8"?>
<svg xmlns="http://www.w3.org/2000/svg" xmlns:xlink="http://www.w3.org/1999/xlink" width="200px" height="200px" viewBox="0 0 200 200" version="1.1">
<g id="surface1">
<path style=" stroke:none;fill-rule:nonzero;fill:rgb(11.372549%,60.784316%,94.117647%);fill-opacity:1;" d="M 200 100 C 200 44.773438 155.226562 0 100 0 C 44.773438 0 0 44.773438 0 100 C 0 155.226562 44.773438 200 100 200 C 155.226562 200 200 155.226562 200 100 Z M 200 100 "/>
<path style=" stroke:none;fill-rule:nonzero;fill:rgb(100%,100%,100%);fill-opacity:1;" d="M 38.398438 42.0625 L 86.199219 105.972656 L 38.097656 157.9375 L 48.925781 157.9375 L 91.039062 112.441406 L 125.0625 157.9375 L 161.902344 157.9375 L 111.414062 90.429688 L 156.183594 42.0625 L 145.359375 42.0625 L 106.574219 83.960938 L 75.238281 42.0625 Z M 54.320312 50.035156 L 71.246094 50.035156 L 145.980469 149.960938 L 129.054688 149.960938 Z M 54.320312 50.035156 "/>
</g>
</svg>
